<?xml version="1.0" encoding="UTF-8"?>
<svg id="Layer_1" data-name="Layer 1" xmlns="http://www.w3.org/2000/svg" viewBox="0 0 511.97 512.07">
  <defs>
    <style>
      .cls-1 {
        fill: #fff;
      }
    </style>
  </defs>
  <path class="cls-1" d="M416,208c0,45.9-14.9,88.3-40,122.7l126.6,126.7c12.5,12.5,12.5,32.8,0,45.3-12.5,12.5-32.8,12.5-45.3,0l-126.6-126.7c-34.4,25.2-76.8,40-122.7,40C93.1,416,0,322.9,0,208S93.1,0,208,0s208,93.1,208,208Zm-208,144c79.5,0,144-64.5,144-144S287.5,64,208,64,64,128.5,64,208s64.5,144,144,144Z"/>
</svg>